<svg width="131" height="755" viewBox="0 0 131 755" fill="none" xmlns="http://www.w3.org/2000/svg">
<path d="M131 754.93H51.58V665.25C51.2 661.83 50.1233 658.917 48.35 656.51C46.5767 654.103 44.0433 652.9 40.75 652.9C36.8233 652.9 34.0367 654.483 32.39 657.65C30.6167 660.817 29.73 664.553 29.73 668.86L29.73 754.93H0.849988L0.849988 662.97C0.849988 656.763 1.67332 651 3.31999 645.68C4.96666 640.36 7.37333 635.737 10.54 631.81C13.58 627.883 17.4433 624.717 22.13 622.31C26.69 619.777 31.9467 618.13 37.9 617.37H43.41C52.6567 618.383 60.2567 621.487 66.21 626.68C72.1633 621.613 79.5733 618.51 88.44 617.37H93.95C99.9033 618.003 105.223 619.587 109.91 622.12C114.47 624.527 118.333 627.757 121.5 631.81C124.667 635.737 127.073 640.36 128.72 645.68C130.24 651 131 656.763 131 662.97V754.93ZM80.46 665.25V719.97H102.12V668.86C102.12 664.553 101.297 660.817 99.65 657.65C97.8767 654.483 95.09 652.9 91.29 652.9C87.9967 652.9 85.5267 654.103 83.88 656.51C82.1067 658.917 80.9667 661.83 80.46 665.25ZM85.59 562.445H0.849988L0.849988 597.215H88.44C95.28 597.215 101.36 596.138 106.68 593.985C112 591.705 116.497 588.602 120.17 584.675C123.717 580.622 126.44 575.808 128.34 570.235C130.113 564.662 131 558.518 131 551.805L131 473.145H102.12L102.12 545.915C102.12 551.235 100.727 555.352 97.94 558.265C95.1533 561.052 91.0367 562.445 85.59 562.445ZM43.41 453.045H88.44C95.28 453.045 101.36 451.969 106.68 449.815C112 447.535 116.497 444.432 120.17 440.505C123.717 436.452 126.44 431.639 128.34 426.065C130.113 420.492 131 414.349 131 407.635V361.085C131 354.372 130.113 348.229 128.34 342.655C126.44 337.082 123.717 332.269 120.17 328.215C116.497 324.162 112 321.059 106.68 318.905C101.36 316.625 95.28 315.485 88.44 315.485H43.41C36.57 315.485 30.5533 316.625 25.36 318.905C20.04 321.059 15.6067 324.162 12.06 328.215C8.38666 332.269 5.6 337.082 3.7 342.655C1.79999 348.229 0.849988 354.372 0.849988 361.085V407.635C0.849988 414.349 1.79999 420.492 3.7 426.065C5.6 431.639 8.38666 436.452 12.06 440.505C15.6067 444.432 20.04 447.535 25.36 449.815C30.5533 451.969 36.57 453.045 43.41 453.045ZM85.59 350.445C91.0367 350.445 95.1533 351.902 97.94 354.815C100.727 357.602 102.12 361.655 102.12 366.975V401.555C102.12 406.875 100.727 410.992 97.94 413.905C95.1533 416.692 91.0367 418.085 85.59 418.085H46.26C40.8133 418.085 36.6967 416.692 33.91 413.905C31.1233 410.992 29.73 406.875 29.73 401.555V366.975C29.73 361.655 31.1233 357.602 33.91 354.815C36.6967 351.902 40.8133 350.445 46.26 350.445H85.59ZM85.59 260.37C91.0367 260.37 95.1533 258.977 97.94 256.19C100.727 253.277 102.12 249.16 102.12 243.84V192.73H57.47L57.47 157.77H131V249.73C131 256.444 130.113 262.587 128.34 268.16C126.44 273.734 123.717 278.547 120.17 282.6C116.497 286.654 112 289.82 106.68 292.1C101.36 294.254 95.28 295.33 88.44 295.33H43.41C36.57 295.33 30.5533 294.254 25.36 292.1C20.04 289.82 15.6067 286.717 12.06 282.79C8.38666 278.737 5.6 273.924 3.7 268.35C1.79999 262.777 0.849988 256.634 0.849988 249.92L0.849988 157.77H29.73L29.73 244.03C29.73 253.91 34.2267 259.357 43.22 260.37H85.59ZM131 137.616H102.12L102.12 51.5455C102.12 47.2389 101.297 43.5022 99.65 40.3355C97.8767 37.1689 95.0267 35.5855 91.1 35.5855C87.8067 35.5855 85.3367 36.7889 83.69 39.1955C82.0433 41.6022 80.9667 44.5155 80.46 47.9355V92.0155C80.46 98.2222 79.7 103.986 78.18 109.306C76.5333 114.626 74.1267 119.312 70.96 123.366C67.7933 127.292 63.93 130.522 59.37 133.056C54.6833 135.589 49.3633 137.109 43.41 137.616H37.9C31.9467 136.856 26.69 135.272 22.13 132.866C17.4433 130.332 13.58 127.102 10.54 123.176C7.37333 119.249 4.96666 114.689 3.31999 109.496C1.67332 104.176 0.849988 98.3489 0.849988 92.0155L0.849988 0.055545H29.73L29.73 86.1255C29.73 90.4322 30.6167 94.1689 32.39 97.3355C34.0367 100.502 36.8233 102.086 40.75 102.086C44.0433 102.086 46.5767 100.946 48.35 98.6655C50.1233 96.2589 51.2 93.3455 51.58 89.9255V45.6555C51.58 39.4489 52.4033 33.6855 54.05 28.3655C55.57 23.0455 57.9133 18.4222 61.08 14.4955C64.12 10.4422 67.9833 7.21221 72.67 4.80554C77.23 2.27221 82.4867 0.688878 88.44 0.055545H93.95C99.9033 0.815543 105.223 2.46221 109.91 4.99554C114.47 7.4022 118.333 10.5689 121.5 14.4955C124.54 18.4222 126.883 23.0455 128.53 28.3655C130.177 33.6855 131 39.4489 131 45.6555L131 137.616Z" fill="white"/>
</svg>
